<svg width="1512" height="1387" viewBox="0 0 1512 1387" fill="none" xmlns="http://www.w3.org/2000/svg">
<path d="M19.0375 461.684C81.8198 54.8318 149.346 456.18 396.735 182.035C981.113 -60.0101 331.252 461.684 850.956 2C1001.01 87.9261 1069.79 215.58 1126.73 182.035C1228.63 122.008 1285.91 -20.5387 1370.07 120.66C1499.46 337.77 1535.38 173.749 1662.07 47.0088C1749.63 -40.5888 1608.6 279.243 1710.73 267.961C1790.75 259.122 1583.73 524.355 1553.98 927.49C1544.71 1053.16 1548.05 1235.64 1521.77 1235.64C1124.71 1235.64 729.212 1407.37 331.252 1382.55C147.03 1371.06 -37.0038 1325.61 -221.169 1307.57C-306.193 1367.81 -454.335 1369.34 -458.746 1310.88C-470.656 1153.01 -394.628 1300.13 -362.558 1300.13C-315.416 1300.13 -268.289 1302.96 -221.169 1307.57C-191.663 1286.67 -169.759 1258.69 -164.101 1223.69C-144.919 1105.04 -68.5217 420.128 -57.1014 418.687C-27.4073 414.938 52.3452 549.985 19.0375 461.684Z" fill="#E1EDE3" stroke="#E1EDE3" stroke-width="3" stroke-linecap="round"/>
</svg>
